<svg width="32" height="32" viewBox="0 0 32 32" fill="none" xmlns="http://www.w3.org/2000/svg">
<path d="M27.7593 1.07307C27.0717 0.385966 26.1394 0 25.1674 0C24.1953 0 23.263 0.385966 22.5754 1.07307L19.8328 3.8157L19.1195 3.09237C19.0261 2.99821 18.915 2.92347 18.7926 2.87247C18.6702 2.82146 18.5389 2.7952 18.4062 2.7952C18.2736 2.7952 18.1423 2.82146 18.0199 2.87247C17.8975 2.92347 17.7863 2.99821 17.6929 3.09237C17.5058 3.2806 17.4008 3.53523 17.4008 3.80064C17.4008 4.06604 17.5058 4.32067 17.6929 4.5089L19.2803 6.09621L7.06396 18.3125V21.7684H10.5199L22.7362 9.54209L24.3235 11.1294C24.5106 11.315 24.7632 11.4196 25.0267 11.4207C25.159 11.4215 25.29 11.3962 25.4124 11.3462C25.5348 11.2962 25.6462 11.2225 25.74 11.1294C25.8342 11.036 25.9089 10.9249 25.9599 10.8025C26.0109 10.6801 26.0372 10.5487 26.0372 10.4161C26.0372 10.2835 26.0109 10.1522 25.9599 10.0298C25.9089 9.90734 25.8342 9.79623 25.74 9.70283L25.0167 8.98955L27.7593 6.24691C28.4434 5.55972 28.8274 4.62959 28.8274 3.65999C28.8274 2.69039 28.4434 1.76025 27.7593 1.07307Z" fill="#0CAE74"/>
<path d="M6.44125 26.0483C6.44125 26.0483 4 28.359 4 29.7152C4.03978 30.3343 4.31375 30.915 4.76626 31.3394C5.21877 31.7638 5.81586 32 6.43623 32C7.05659 32 7.65369 31.7638 8.10619 31.3394C8.5587 30.915 8.83268 30.3343 8.87245 29.7152C8.87245 28.359 6.44125 26.0483 6.44125 26.0483Z" fill="#0CAE74"/>
</svg>
