<svg width="32" height="32" viewBox="0 0 32 32" fill="none" xmlns="http://www.w3.org/2000/svg">
<path d="M12.0384 16.6608C13.9579 14.7412 13.9579 11.6289 12.0384 9.70934C10.1188 7.78976 7.00657 7.78976 5.08701 9.70934C3.16744 11.6289 3.16744 14.7412 5.08701 16.6608C7.00657 18.5804 10.1188 18.5804 12.0384 16.6608Z" fill="#0CAE74"/>
<path d="M11.088 19.597C11.0554 19.6404 11.0264 19.6875 10.9938 19.731C10.9866 19.7418 10.9757 19.7563 10.9685 19.7672C10.9359 19.8143 10.9069 19.8578 10.8779 19.9012C10.8417 19.9556 10.8127 20.0027 10.7837 20.0497C10.7547 20.0968 10.7258 20.1439 10.6968 20.191C10.6642 20.2453 10.6352 20.2961 10.6135 20.3323C10.6098 20.3395 10.6026 20.3504 10.599 20.3576C10.57 20.4047 10.5483 20.4518 10.5265 20.4917C10.5193 20.5025 10.5157 20.5134 10.5084 20.5243C10.4903 20.5605 10.465 20.604 10.4432 20.6474C10.436 20.6619 10.4324 20.6728 10.4251 20.6873C10.407 20.7235 10.3889 20.7597 10.3708 20.7996L10.3672 20.8068L10.3635 20.8104L10.3599 20.814C10.3563 20.8213 10.3527 20.8322 10.349 20.8394C10.3346 20.8684 10.3201 20.901 10.302 20.9408C10.2875 20.9734 10.273 21.0024 10.2621 21.0241V21.0278C10.2585 21.035 10.2549 21.0459 10.2476 21.0604C10.2331 21.093 10.2186 21.1292 10.2005 21.1654C10.1897 21.1871 10.1824 21.2089 10.1716 21.2306C10.1607 21.2596 10.1498 21.2849 10.139 21.3139C10.1317 21.332 10.1208 21.3574 10.11 21.3827C10.0955 21.4153 10.0846 21.4479 10.0738 21.4733C10.0556 21.5204 10.0375 21.5711 10.0194 21.6182V21.6218V21.6254C10.0049 21.6725 9.98682 21.716 9.97233 21.7631L9.94335 21.85V21.8536C9.93973 21.8681 9.93249 21.8826 9.92886 21.8971V21.9007V21.9044C9.90713 21.9696 9.89264 22.0275 9.87453 22.0818C9.86366 22.1144 9.85642 22.1507 9.84555 22.1833C9.82744 22.2485 9.80933 22.3173 9.79122 22.3825C9.78397 22.4187 9.77311 22.4513 9.76586 22.4875V22.4912V22.4984C9.76224 22.5165 9.75862 22.531 9.75499 22.5491C9.74413 22.5962 9.73326 22.6397 9.72602 22.6795C9.71515 22.723 9.7079 22.7665 9.70066 22.8063C9.68979 22.8606 9.67893 22.9186 9.66806 22.9802C9.65719 23.0381 9.64995 23.0888 9.6427 23.1359C9.63546 23.183 9.62822 23.2337 9.62097 23.2808C9.61373 23.3279 9.60648 23.3786 9.60286 23.4366C9.58837 23.5525 9.5775 23.6612 9.57026 23.7662C9.56664 23.8024 9.56301 23.8423 9.56301 23.8821V23.8894L9.55939 23.9256C9.55939 23.9292 9.55939 23.9328 9.55939 23.9401V23.951C9.55939 23.9872 9.55577 24.0306 9.55215 24.0777C9.54852 24.1429 9.54853 24.1973 9.54853 24.2516C9.54853 24.2951 9.54853 24.3422 9.54853 24.3856V28.5984H2.14101C1.51074 28.5984 1 28.0876 1 27.4573V24.8094C1 21.937 3.33636 19.597 6.21243 19.597H10.9177C10.9721 19.5933 11.03 19.5933 11.088 19.597Z" fill="#0CAE74"/>
<path d="M31.9921 24.3816V29.1486C31.9921 29.6195 31.6081 29.9998 31.1408 29.9998H27.7758V26.1928H26.3269V29.9998H16.6591V26.1928H15.2102V29.9998H11.8451C11.3742 29.9998 10.9902 29.6159 10.9902 29.1486V24.3816C10.9902 24.3454 10.9902 24.3092 10.9902 24.273C10.9902 24.2223 10.9939 24.1715 10.9939 24.1245C10.9939 24.081 10.9975 24.0411 11.0011 23.9977C11.0011 23.9941 11.0011 23.9904 11.0011 23.9868C11.0047 23.9506 11.0047 23.9107 11.0083 23.8745C11.0156 23.784 11.0228 23.6934 11.0337 23.6028C11.0373 23.563 11.0446 23.5195 11.0482 23.4797C11.0554 23.4362 11.0591 23.3964 11.0663 23.3529C11.0735 23.3094 11.0808 23.2696 11.088 23.2297C11.0953 23.1827 11.1061 23.1356 11.1134 23.0885C11.1206 23.0559 11.1279 23.0197 11.1351 22.9871C11.1424 22.9508 11.1496 22.9146 11.1605 22.8748C11.1641 22.8603 11.1677 22.8422 11.1713 22.8277C11.1786 22.7987 11.1858 22.7661 11.1931 22.7371C11.2076 22.6828 11.2221 22.6284 11.2365 22.5741C11.2438 22.5451 11.2547 22.5162 11.2619 22.4872C11.2764 22.4401 11.2909 22.3894 11.3054 22.3423C11.3162 22.3061 11.3307 22.2698 11.3416 22.23V22.2264C11.3561 22.1902 11.3669 22.1503 11.3814 22.1141C11.3959 22.0706 11.4104 22.0308 11.4285 21.9873C11.4394 21.9619 11.4503 21.933 11.4611 21.9076C11.4684 21.8895 11.472 21.875 11.4792 21.8605C11.4865 21.8388 11.4973 21.8171 11.5082 21.7953C11.5155 21.7772 11.5227 21.7591 11.53 21.741C11.5408 21.712 11.5553 21.6794 11.5698 21.6504C11.5734 21.6396 11.577 21.6323 11.5843 21.6215C11.5952 21.5997 11.6024 21.578 11.6133 21.5562C11.6241 21.5273 11.6386 21.5019 11.6531 21.4729C11.6604 21.4621 11.664 21.4512 11.6712 21.4367C11.6857 21.4041 11.7002 21.3751 11.7183 21.3425C11.7219 21.3317 11.7292 21.3208 11.7328 21.3099C11.7509 21.2773 11.769 21.2411 11.7871 21.2085C11.7908 21.2013 11.7944 21.194 11.798 21.1868C11.8197 21.1469 11.8415 21.1071 11.8632 21.0636C11.8632 21.06 11.8668 21.06 11.8668 21.0564C11.8886 21.0165 11.9139 20.9767 11.9356 20.9368C11.961 20.897 11.9827 20.8571 12.0081 20.8173C12.0334 20.7775 12.0588 20.734 12.0878 20.6941C12.1131 20.6579 12.1349 20.6181 12.1602 20.5819C12.1675 20.5746 12.1711 20.5637 12.1783 20.5565C12.2616 20.437 12.3486 20.3174 12.4391 20.2051C12.4645 20.1725 12.4898 20.1399 12.5152 20.111C12.5695 20.0421 12.6275 19.9769 12.6855 19.9081C13.9677 18.4592 15.7933 17.6333 17.7385 17.6333H25.2366C28.9639 17.6297 31.9921 20.6579 31.9921 24.3816Z" fill="#0CAE74"/>
<path d="M14.7207 8.77369C14.7207 5.0391 17.7598 2 21.4943 2C25.2289 2 28.2679 5.0391 28.2679 8.77369C28.2679 12.5083 25.2289 15.5438 21.4943 15.5438C17.7598 15.5438 14.7207 12.5047 14.7207 8.77369Z" fill="#0CAE74"/>
</svg>
