<svg width="32" height="32" viewBox="0 0 32 32" fill="none" xmlns="http://www.w3.org/2000/svg">
<path d="M15.125 9H11.625C11.1611 8.99937 10.7163 8.8148 10.3883 8.48675C10.0602 8.15869 9.87563 7.71394 9.875 7.25V3.75C9.87563 3.28606 10.0602 2.84131 10.3883 2.51325C10.7163 2.1852 11.1611 2.00063 11.625 2H15.125C15.5889 2.00063 16.0337 2.1852 16.3617 2.51325C16.6898 2.84131 16.8744 3.28606 16.875 3.75V7.25C16.8744 7.71394 16.6898 8.15869 16.3617 8.48675C16.0337 8.8148 15.5889 8.99937 15.125 9Z" fill="#0CAE74"/>
<path d="M26.5 19.5H23C22.5361 19.4994 22.0913 19.3148 21.7633 18.9867C21.4352 18.6587 21.2506 18.2139 21.25 17.75V14.25C21.2506 13.7861 21.4352 13.3413 21.7633 13.0133C22.0913 12.6852 22.5361 12.5006 23 12.5H26.5C26.9639 12.5006 27.4087 12.6852 27.7367 13.0133C28.0648 13.3413 28.2494 13.7861 28.25 14.25V17.75C28.2494 18.2139 28.0648 18.6587 27.7367 18.9867C27.4087 19.3148 26.9639 19.4994 26.5 19.5Z" fill="#0CAE74"/>
<path d="M9 19.5H5.5C5.03606 19.4994 4.59131 19.3148 4.26325 18.9867C3.9352 18.6587 3.75063 18.2139 3.75 17.75V14.25C3.75063 13.7861 3.9352 13.3413 4.26325 13.0133C4.59131 12.6852 5.03606 12.5006 5.5 12.5H9C9.46394 12.5006 9.90869 12.6852 10.2367 13.0133C10.5648 13.3413 10.7494 13.7861 10.75 14.25V17.75C10.7494 18.2139 10.5648 18.6587 10.2367 18.9867C9.90869 19.3148 9.46394 19.4994 9 19.5Z" fill="#0CAE74"/>
<path d="M20.375 30H16.875C16.4111 29.9994 15.9663 29.8148 15.6383 29.4867C15.3102 29.1587 15.1256 28.7139 15.125 28.25V24.75C15.1256 24.2861 15.3102 23.8413 15.6383 23.5133C15.9663 23.1852 16.4111 23.0006 16.875 23H20.375C20.8389 23.0006 21.2837 23.1852 21.6117 23.5133C21.9398 23.8413 22.1244 24.2861 22.125 24.75V28.25C22.1244 28.7139 21.9398 29.1587 21.6117 29.4867C21.2837 29.8148 20.8389 29.9994 20.375 30Z" fill="#0CAE74"/>
<path d="M24.75 14.25C24.5179 14.25 24.2954 14.1578 24.1313 13.9937C23.9672 13.8296 23.875 13.6071 23.875 13.375V7.25C23.8749 7.01798 23.7826 6.7955 23.6186 6.63144C23.4545 6.46737 23.232 6.37514 23 6.375H16C15.7679 6.375 15.5454 6.28281 15.3813 6.11872C15.2172 5.95462 15.125 5.73206 15.125 5.5C15.125 5.26794 15.2172 5.04538 15.3813 4.88128C15.5454 4.71719 15.7679 4.625 16 4.625H23C23.696 4.62576 24.3632 4.90257 24.8553 5.39469C25.3474 5.88681 25.6242 6.55404 25.625 7.25V13.375C25.625 13.6071 25.5328 13.8296 25.3687 13.9937C25.2046 14.1578 24.9821 14.25 24.75 14.25Z" fill="#0CAE74"/>
<path d="M22.125 16.875H9.875C9.64294 16.875 9.42038 16.7828 9.25628 16.6187C9.09219 16.4546 9 16.2321 9 16C9 15.7679 9.09219 15.5454 9.25628 15.3813C9.42038 15.2172 9.64294 15.125 9.875 15.125H22.125C22.3571 15.125 22.5796 15.2172 22.7437 15.3813C22.9078 15.5454 23 15.7679 23 16C23 16.2321 22.9078 16.4546 22.7437 16.6187C22.5796 16.7828 22.3571 16.875 22.125 16.875Z" fill="#0CAE74"/>
<path d="M16 27.375H9C8.30404 27.3742 7.63681 27.0974 7.14469 26.6053C6.65257 26.1132 6.37576 25.446 6.375 24.75V18.625C6.375 18.3929 6.46719 18.1704 6.63128 18.0063C6.79538 17.8422 7.01794 17.75 7.25 17.75C7.48206 17.75 7.70462 17.8422 7.86872 18.0063C8.03281 18.1704 8.125 18.3929 8.125 18.625V24.75C8.12514 24.982 8.21737 25.2045 8.38144 25.3686C8.5455 25.5326 8.76798 25.6249 9 25.625H16C16.2321 25.625 16.4546 25.7172 16.6187 25.8813C16.7828 26.0454 16.875 26.2679 16.875 26.5C16.875 26.7321 16.7828 26.9546 16.6187 27.1187C16.4546 27.2828 16.2321 27.375 16 27.375Z" fill="#0CAE74"/>
<path d="M5.89239 8.16074C5.71936 8.16071 5.55022 8.10937 5.40637 8.01322C5.26251 7.91707 5.15038 7.78043 5.08417 7.62056C5.01796 7.4607 5.00063 7.2848 5.03438 7.11509C5.06813 6.94538 5.15143 6.78949 5.27377 6.66712L6.45895 5.48237L5.34552 4.36849C5.18555 4.20357 5.09687 3.98235 5.09862 3.75259C5.10038 3.52284 5.19243 3.303 5.3549 3.14054C5.51737 2.97808 5.73722 2.88604 5.96697 2.8843C6.19672 2.88256 6.41794 2.97126 6.58285 3.13124L8.31492 4.86374C8.47895 5.02783 8.57111 5.25035 8.57111 5.48237C8.57111 5.71439 8.47895 5.93691 8.31492 6.10099L6.5111 7.90437C6.42996 7.98577 6.33353 8.05033 6.22734 8.09433C6.12116 8.13833 6.00733 8.1609 5.89239 8.16074Z" fill="#0CAE74"/>
<path d="M20.3476 8.16086C20.1745 8.16085 20.0054 8.10952 19.8615 8.01338C19.7176 7.91724 19.6055 7.78059 19.5393 7.62073C19.473 7.46086 19.4557 7.28495 19.4895 7.11523C19.5232 6.94552 19.6065 6.78962 19.7288 6.66724L20.914 5.48249L19.8007 4.36862C19.6413 4.20359 19.5531 3.98256 19.5551 3.75314C19.5571 3.52372 19.6491 3.30426 19.8113 3.14202C19.9736 2.97979 20.193 2.88777 20.4225 2.88578C20.6519 2.88378 20.8729 2.97198 21.0379 3.13136L22.7704 4.86387C22.9345 5.02795 23.0266 5.25047 23.0266 5.48249C23.0266 5.71451 22.9345 5.93703 22.7704 6.10111L20.9662 7.90449C20.8851 7.98589 20.7886 8.05044 20.6825 8.09444C20.5763 8.13844 20.4625 8.16101 20.3476 8.16086Z" fill="#0CAE74"/>
<path d="M10.7226 29.1252C10.5495 29.1252 10.3804 29.0739 10.2365 28.9778C10.0926 28.8816 9.98049 28.745 9.91427 28.5851C9.84805 28.4252 9.83071 28.2493 9.86446 28.0796C9.8982 27.9099 9.98151 27.754 10.1038 27.6316L11.289 26.4464L10.1757 25.333C10.0921 25.2523 10.0255 25.1557 9.97959 25.049C9.93374 24.9422 9.9096 24.8274 9.90859 24.7112C9.90758 24.595 9.92972 24.4798 9.97371 24.3723C10.0177 24.2647 10.0827 24.1671 10.1648 24.0849C10.247 24.0027 10.3447 23.9378 10.4522 23.8938C10.5598 23.8498 10.675 23.8276 10.7912 23.8286C10.9073 23.8297 11.0222 23.8538 11.1289 23.8997C11.2357 23.9455 11.3322 24.0122 11.4129 24.0957L13.1459 25.8277C13.3099 25.9918 13.4021 26.2143 13.4021 26.4464C13.4021 26.6784 13.3099 26.901 13.1459 27.0651L11.3412 28.8689C11.26 28.9502 11.1636 29.0148 11.0575 29.0588C10.9513 29.1028 10.8375 29.1254 10.7226 29.1252Z" fill="#0CAE74"/>
<path d="M16.8304 18.3089C16.7155 18.309 16.6017 18.2864 16.4955 18.2424C16.3893 18.1984 16.2929 18.1339 16.2118 18.0525L14.4788 16.32C14.3148 16.1559 14.2227 15.9334 14.2227 15.7014C14.2227 15.4694 14.3148 15.2468 14.4788 15.0828L16.2835 13.2788C16.4483 13.1181 16.6698 13.0288 16.8999 13.0303C17.13 13.0317 17.3503 13.1238 17.5131 13.2866C17.6758 13.4493 17.7679 13.6696 17.7693 13.8997C17.7708 14.1299 17.6815 14.3513 17.5209 14.5161L16.3348 15.7013L17.449 16.8155C17.5714 16.9379 17.6547 17.0938 17.6885 17.2635C17.7223 17.4332 17.7049 17.6092 17.6387 17.769C17.5725 17.9289 17.4604 18.0656 17.3165 18.1617C17.1726 18.2579 17.0035 18.3089 16.8304 18.3089Z" fill="#0CAE74"/>
<path d="M5.73669 6.375H2.875C2.64294 6.375 2.42038 6.28281 2.25628 6.11872C2.09219 5.95462 2 5.73206 2 5.5C2 5.26794 2.09219 5.04538 2.25628 4.88128C2.42038 4.71719 2.64294 4.625 2.875 4.625H5.73669C5.96875 4.625 6.19131 4.71719 6.35541 4.88128C6.5195 5.04538 6.61169 5.26794 6.61169 5.5C6.61169 5.73206 6.5195 5.95462 6.35541 6.11872C6.19131 6.28281 5.96875 6.375 5.73669 6.375Z" fill="#0CAE74"/>
<path d="M27.3212 29.1609C27.1482 29.1609 26.979 29.1095 26.8351 29.0134C26.6913 28.9173 26.5791 28.7806 26.5129 28.6207C26.4467 28.4609 26.4293 28.285 26.4631 28.1153C26.4968 27.9455 26.5801 27.7896 26.7025 27.6673L27.8877 26.4825L26.7743 25.3686C26.6907 25.2879 26.6241 25.1914 26.5782 25.0846C26.5324 24.9779 26.5082 24.863 26.5072 24.7469C26.5062 24.6307 26.5284 24.5155 26.5723 24.4079C26.6163 24.3004 26.6813 24.2027 26.7635 24.1205C26.8456 24.0384 26.9433 23.9734 27.0509 23.9294C27.1584 23.8854 27.2736 23.8633 27.3898 23.8643C27.506 23.8653 27.6208 23.8894 27.7275 23.9353C27.8343 23.9812 27.9308 24.0478 28.0116 24.1314L29.7441 25.8639C29.8254 25.9451 29.8898 26.0415 29.9338 26.1477C29.9778 26.2538 30.0005 26.3676 30.0005 26.4825C30.0005 26.5974 29.9778 26.7112 29.9338 26.8173C29.8898 26.9235 29.8254 27.0199 29.7441 27.1011L27.9398 28.9045C27.8587 28.9859 27.7623 29.0505 27.6561 29.0945C27.5499 29.1385 27.4361 29.161 27.3212 29.1609Z" fill="#0CAE74"/>
<path d="M27.165 27.375H24.3037C24.0716 27.375 23.8491 27.2828 23.685 27.1187C23.5209 26.9546 23.4287 26.7321 23.4287 26.5C23.4287 26.2679 23.5209 26.0454 23.685 25.8813C23.8491 25.7172 24.0716 25.625 24.3037 25.625H27.165C27.397 25.625 27.6196 25.7172 27.7837 25.8813C27.9478 26.0454 28.04 26.2679 28.04 26.5C28.04 26.7321 27.9478 26.9546 27.7837 27.1187C27.6196 27.2828 27.397 27.375 27.165 27.375Z" fill="#0CAE74"/>
</svg>
