<svg width="32" height="32" viewBox="0 0 32 32" fill="none" xmlns="http://www.w3.org/2000/svg">
<path d="M10.9463 27.5932C10.0946 29.0074 7.48103 31.1874 7.18412 31.4296C7.04458 31.5452 6.86919 31.6087 6.68797 31.6093C6.50541 31.6097 6.32848 31.5461 6.18791 31.4296C5.89491 31.1874 3.27741 29.0074 2.42574 27.5932C2.16998 27.1361 2.0257 26.625 2.00466 26.1016C1.98361 25.5783 2.08639 25.0573 2.30464 24.5811C2.47739 24.1396 2.75282 23.7456 3.10813 23.4317C3.46344 23.1179 3.88841 22.8932 4.34785 22.7762C4.75372 22.6896 5.17356 22.6923 5.5783 22.784C5.98304 22.8758 6.363 23.0544 6.69188 23.3075C7.0205 23.0539 7.40045 22.875 7.80527 22.7833C8.2101 22.6915 8.63006 22.6891 9.0359 22.7762C9.49561 22.8926 9.92087 23.1171 10.2763 23.431C10.6317 23.745 10.9069 24.1393 11.0791 24.5811C11.2965 25.058 11.3978 25.5796 11.3747 26.1031C11.3516 26.6267 11.2048 27.1373 10.9463 27.5932ZM16.9704 21.1198C16.7196 20.4694 16.3178 19.888 15.7982 19.4234C15.2786 18.9588 14.656 18.6243 13.9818 18.4476C13.3203 18.312 12.6359 18.337 11.9861 18.5205C11.3362 18.7041 10.7398 19.0408 10.247 19.5024C9.75231 19.0442 9.15511 18.7111 8.50535 18.531C7.85558 18.3509 7.17214 18.329 6.51217 18.4671C5.12138 18.764 3.95718 19.9516 3.40633 21.4362C3.60703 21.3571 3.81336 21.2931 4.02359 21.2448C4.32687 21.1814 4.63575 21.1487 4.94557 21.1471C5.54507 21.1481 6.13803 21.2717 6.68797 21.5104C7.23653 21.2717 7.82822 21.1481 8.42646 21.1471C8.73756 21.1489 9.04772 21.1816 9.35235 21.2448C10.0566 21.4178 10.7096 21.7561 11.2571 22.2317C11.8047 22.7072 12.2311 23.3064 12.5012 23.9795C12.8228 24.6866 12.9711 25.4603 12.9337 26.2362C12.8963 27.0122 12.6744 27.768 12.2863 28.441C11.6729 29.4528 10.4384 30.6756 9.44611 31.5663L9.75083 31.8242C9.89091 31.9384 10.0662 32.0005 10.247 32C10.4291 32.0014 10.6059 31.9393 10.747 31.8242C10.9346 31.664 15.4351 27.9448 16.8064 25.6594C17.1947 24.971 17.4123 24.1994 17.4409 23.4095C17.4694 22.6196 17.3081 21.8344 16.9704 21.1198ZM16.5485 8.30681e-06C14.232 -0.00246825 11.9485 0.548851 9.88825 1.608C7.82805 2.66716 6.05088 4.20345 4.7049 6.08882C3.35893 7.97418 2.48314 10.154 2.15056 12.4465C1.81798 14.739 2.03824 17.0778 2.79298 19.268C3.59263 18.0888 4.80544 17.2524 6.19182 16.9239C6.5899 16.8388 6.99581 16.7956 7.4029 16.795C8.40354 16.7979 9.38532 17.0676 10.247 17.5764C11.1091 17.0686 12.0906 16.799 13.0911 16.795C13.4995 16.7955 13.9067 16.8387 14.3061 16.9239C15.2244 17.1519 16.0751 17.5954 16.7878 18.2177C17.5005 18.8401 18.0546 19.6233 18.4042 20.5025C18.8358 21.4423 19.0376 22.4714 18.9928 23.5047C18.9479 24.5379 18.6578 25.5457 18.1464 26.4446C17.5202 27.3968 16.799 28.283 15.9938 29.0895H16.5485C20.3476 29.0014 23.9615 27.4304 26.6173 24.7123C29.2731 21.9942 30.76 18.3449 30.76 14.5447C30.76 10.7446 29.2731 7.09526 26.6173 4.37719C23.9615 1.65912 20.3476 0.088069 16.5485 8.30681e-06ZM10.3329 8.17287C10.3329 8.3801 10.2506 8.57884 10.1041 8.72537C9.95755 8.8719 9.75881 8.95422 9.55159 8.95422C9.34436 8.95422 9.14563 8.8719 8.9991 8.72537C8.85257 8.57884 8.77025 8.3801 8.77025 8.17287C8.85197 7.40563 9.21462 6.69573 9.78838 6.17983C10.3621 5.66394 11.1065 5.37852 11.878 5.37852C12.6496 5.37852 13.3939 5.66394 13.9677 6.17983C14.5415 6.69573 14.9041 7.40563 14.9858 8.17287C14.9858 8.3801 14.9035 8.57884 14.757 8.72537C14.6104 8.8719 14.4117 8.95422 14.2045 8.95422C13.9973 8.95422 13.7985 8.8719 13.652 8.72537C13.5055 8.57884 13.4231 8.3801 13.4231 8.17287C13.3701 7.80038 13.1844 7.45954 12.9002 7.21296C12.616 6.96638 12.2523 6.83063 11.8761 6.83063C11.4998 6.83063 11.1362 6.96638 10.852 7.21296C10.5678 7.45954 10.3821 7.80038 10.329 8.17287H10.3329ZM16.5485 15.4042C15.4088 15.4042 14.3157 14.9515 13.5098 14.1455C12.7039 13.3396 12.2511 12.2466 12.2511 11.1068C12.2511 10.8996 12.3334 10.7009 12.48 10.5543C12.6265 10.4078 12.8252 10.3255 13.0325 10.3255C13.2397 10.3255 13.4384 10.4078 13.585 10.5543C13.7315 10.7009 13.8138 10.8996 13.8138 11.1068C13.8768 11.7854 14.191 12.416 14.6947 12.8751C15.1983 13.3342 15.8553 13.5886 16.5368 13.5886C17.2183 13.5886 17.8752 13.3342 18.3789 12.8751C18.8826 12.416 19.1967 11.7854 19.2598 11.1068C19.2598 10.8996 19.3421 10.7009 19.4886 10.5543C19.6352 10.4078 19.8339 10.3255 20.0411 10.3255C20.2483 10.3255 20.4471 10.4078 20.5936 10.5543C20.7401 10.7009 20.8225 10.8996 20.8225 11.1068C20.8225 12.2425 20.3729 13.332 19.5721 14.1373C18.7712 14.9425 17.6842 15.398 16.5485 15.4042ZM23.5454 8.95422C23.3382 8.95422 23.1395 8.8719 22.9929 8.72537C22.8464 8.57884 22.7641 8.3801 22.7641 8.17287C22.7977 7.95043 22.783 7.72334 22.7208 7.50713C22.6586 7.29092 22.5504 7.09069 22.4037 6.92013C22.257 6.74956 22.0752 6.61269 21.8708 6.51885C21.6663 6.42502 21.444 6.37644 21.219 6.37644C20.994 6.37644 20.7717 6.42502 20.5672 6.51885C20.3627 6.61269 20.1809 6.74956 20.0342 6.92013C19.8875 7.09069 19.7794 7.29092 19.7172 7.50713C19.655 7.72334 19.6402 7.95043 19.6739 8.17287C19.6739 8.3801 19.5916 8.57884 19.445 8.72537C19.2985 8.8719 19.0998 8.95422 18.8925 8.95422C18.6853 8.95422 18.4866 8.8719 18.34 8.72537C18.1935 8.57884 18.1112 8.3801 18.1112 8.17287C18.0676 7.7383 18.1155 7.29941 18.2519 6.88451C18.3884 6.4696 18.6102 6.0879 18.9032 5.76401C19.1962 5.44012 19.5539 5.18124 19.9531 5.00407C20.3523 4.82689 20.7842 4.73535 21.2209 4.73535C21.6577 4.73535 22.0896 4.82689 22.4888 5.00407C22.888 5.18124 23.2456 5.44012 23.5386 5.76401C23.8317 6.0879 24.0535 6.4696 24.1899 6.88451C24.3264 7.29941 24.3743 7.7383 24.3307 8.17287C24.3307 8.27581 24.3103 8.37773 24.2708 8.47278C24.2313 8.56784 24.1734 8.65415 24.1005 8.72675C24.0275 8.79936 23.9409 8.85683 23.8456 8.89587C23.7504 8.9349 23.6484 8.95473 23.5454 8.95422Z" fill="#0CAE74"/>
</svg>
