<svg width="28" height="29" viewBox="0 0 28 29" fill="none" xmlns="http://www.w3.org/2000/svg">
<path fill-rule="evenodd" clip-rule="evenodd" d="M13 4.3999C8.02944 4.3999 4 8.42934 4 13.3999C4 18.3705 8.02944 22.3999 13 22.3999C15.125 22.3999 17.078 21.6634 18.6177 20.4318L23.2929 25.107C23.6834 25.4975 24.3166 25.4975 24.7071 25.107C25.0976 24.7165 25.0976 24.0833 24.7071 23.6928L20.0319 19.0176C21.2635 17.4779 22 15.5249 22 13.3999C22 8.42934 17.9706 4.3999 13 4.3999ZM13 6.3999C9.13401 6.3999 6 9.53391 6 13.3999C6 17.2659 9.13401 20.3999 13 20.3999C16.866 20.3999 20 17.2659 20 13.3999C20 9.53391 16.866 6.3999 13 6.3999Z" fill="#0CAE74"/>
</svg>
