<svg width="149" height="69" viewBox="0 0 149 69" fill="none" xmlns="http://www.w3.org/2000/svg">
<path d="M57.3925 23.91L57.3767 26.3688C56.8934 26.4634 56.4153 26.5527 55.9424 26.6368C55.4696 26.7208 54.9915 26.7944 54.5081 26.8574C54.0037 26.9205 53.4994 26.9783 52.995 27.0308C52.4906 27.0833 51.9862 27.1096 51.4819 27.1096C51.3348 27.1096 51.1194 27.1044 50.8357 27.0939C50.5519 27.0833 50.2577 27.0623 49.953 27.0308C49.6483 26.9993 49.3593 26.9625 49.0861 26.9205C48.8129 26.8679 48.6133 26.8049 48.4872 26.7313C48.3716 26.6578 48.2613 26.5737 48.1562 26.4791C48.0511 26.3741 47.9565 26.269 47.8725 26.1639C47.6518 25.8907 47.4679 25.5912 47.3208 25.2655C47.1737 24.9398 47.0581 24.6035 46.9741 24.2568C46.89 23.91 46.8269 23.558 46.7849 23.2007C46.7534 22.8435 46.7376 22.4915 46.7376 22.1447C46.7376 21.7244 46.7586 21.2883 46.8007 20.8365C46.8532 20.3847 46.932 19.9381 47.0371 19.4968C47.1422 19.0554 47.2788 18.6299 47.4469 18.2201C47.6255 17.8103 47.8409 17.432 48.0931 17.0852C48.1667 16.9907 48.2613 16.8751 48.3768 16.7385C48.4924 16.6019 48.608 16.5021 48.7236 16.439C49.0073 16.2814 49.3225 16.15 49.6693 16.045C50.0266 15.9399 50.3943 15.8611 50.7726 15.8085C51.1509 15.7455 51.5239 15.7035 51.8917 15.6824C52.27 15.6509 52.6167 15.6352 52.9319 15.6352C53.5309 15.6352 54.1298 15.6719 54.7288 15.7455C55.3277 15.8085 55.9109 15.9241 56.4783 16.0923C56.4573 16.376 56.4415 16.6649 56.431 16.9591C56.4205 17.2428 56.4153 17.5266 56.4153 17.8103C56.4153 18.4933 56.431 19.1815 56.4625 19.875C55.9897 19.6964 55.4958 19.5703 54.981 19.4968C54.4661 19.4127 53.9564 19.3707 53.4521 19.3707C53.347 19.3707 53.1946 19.3812 52.995 19.4022C52.7953 19.4127 52.5694 19.4337 52.3172 19.4652C52.0651 19.4862 51.8024 19.5178 51.5292 19.5598C51.2665 19.6018 51.0195 19.6544 50.7884 19.7174C50.5572 19.7805 50.3523 19.854 50.1737 19.9381C50.0055 20.0221 49.8952 20.1115 49.8427 20.206C49.8006 20.2901 49.7639 20.4109 49.7323 20.5685C49.7113 20.7157 49.6903 20.8733 49.6693 21.0414C49.6588 21.2095 49.6483 21.3724 49.6378 21.53C49.6378 21.6876 49.6378 21.8137 49.6378 21.9083C49.6378 22.0029 49.6483 22.192 49.6693 22.4757C49.6903 22.7594 49.7166 23.0641 49.7481 23.3899C49.7796 23.7051 49.8164 23.9941 49.8584 24.2568C49.911 24.5195 49.9635 24.6718 50.016 24.7138C50.0686 24.7454 50.1526 24.7664 50.2682 24.7769C50.3943 24.7769 50.4784 24.7769 50.5204 24.7769C51.0353 24.7769 51.587 24.7506 52.1754 24.6981C52.7638 24.6455 53.3575 24.5772 53.9564 24.4932C54.5659 24.3986 55.1648 24.304 55.7533 24.2095C56.3417 24.1044 56.8881 24.0046 57.3925 23.91ZM70.6638 19.8435C70.6638 20.0221 70.6532 20.1903 70.6322 20.3479C70.6112 20.5055 70.5744 20.6684 70.5219 20.8365C70.4589 21.0151 70.338 21.1885 70.1594 21.3566C69.9807 21.5142 69.7811 21.6666 69.5604 21.8137C69.3398 21.9503 69.1139 22.0712 68.8827 22.1762C68.6515 22.2708 68.4571 22.3444 68.2995 22.3969C68.352 22.4074 68.4571 22.4284 68.6147 22.4599C68.7724 22.481 68.9352 22.5125 69.1034 22.5545C69.282 22.5965 69.4449 22.6491 69.592 22.7121C69.7391 22.7647 69.8336 22.8225 69.8757 22.8855C69.9492 23.0116 70.007 23.1692 70.049 23.3584C70.1016 23.537 70.1384 23.7314 70.1594 23.9415C70.1804 24.1412 70.1962 24.3408 70.2067 24.5405C70.2172 24.7296 70.2224 24.8977 70.2224 25.0448C70.2224 25.0974 70.2224 25.1552 70.2224 25.2182C70.2224 25.2708 70.2172 25.3233 70.2067 25.3758C70.1856 25.4809 70.1121 25.6228 69.986 25.8014C69.8599 25.9695 69.7128 26.1429 69.5447 26.3215C69.3766 26.5002 69.2084 26.6683 69.0403 26.8259C68.8827 26.973 68.7619 27.0781 68.6778 27.1411C68.5622 27.2252 68.4466 27.2988 68.331 27.3618C68.226 27.4248 68.1104 27.4826 67.9843 27.5352C67.8897 27.5772 67.6848 27.6087 67.3696 27.6297C67.0649 27.6508 66.7391 27.6665 66.3924 27.677C66.0456 27.698 65.7199 27.7086 65.4151 27.7086C65.1104 27.7191 64.9055 27.7243 64.8004 27.7243C63.9598 27.7243 63.1297 27.7086 62.3101 27.677C61.4905 27.656 60.6604 27.6245 59.8198 27.5825C59.8408 26.8364 59.8565 26.0956 59.8671 25.3601C59.8776 24.614 59.8828 23.8627 59.8828 23.1062C59.8828 22.255 59.8565 21.4092 59.804 20.5685C59.7515 19.7279 59.6937 18.8873 59.6306 18.0467L58.417 17.9364C58.3644 17.516 58.3224 17.1062 58.2909 16.707C58.2699 16.2972 58.2384 15.8873 58.1963 15.4775C59.058 15.4986 59.9196 15.5196 60.7812 15.5406C61.6429 15.5616 62.5045 15.5826 63.3661 15.6036C63.7339 15.6141 64.2015 15.6509 64.7689 15.714C65.3363 15.7665 65.9143 15.8401 66.5027 15.9346C67.1016 16.0292 67.6638 16.1448 68.1892 16.2814C68.7251 16.418 69.1454 16.5704 69.4501 16.7385C69.6813 16.8646 69.8704 17.0537 70.0175 17.3059C70.1751 17.5581 70.3012 17.8365 70.3958 18.1413C70.4904 18.4355 70.5587 18.7349 70.6007 19.0397C70.6427 19.3444 70.6638 19.6123 70.6638 19.8435ZM66.4712 19.7805C66.4712 19.6754 66.4659 19.544 66.4554 19.3864C66.4449 19.2183 66.4239 19.0502 66.3924 18.8821C66.3608 18.7139 66.3188 18.5563 66.2663 18.4092C66.2137 18.2621 66.1507 18.1413 66.0771 18.0467C66.0561 18.0152 65.9983 17.9889 65.9037 17.9679C65.8092 17.9469 65.7041 17.9311 65.5885 17.9206C65.4834 17.9101 65.3784 17.9048 65.2733 17.9048C65.1682 17.9048 65.0999 17.9048 65.0684 17.9048C64.543 17.9048 64.0229 17.9364 63.508 17.9994C62.9931 18.0519 62.4782 18.1202 61.9633 18.2043C62.0264 18.7192 62.0842 19.2341 62.1367 19.7489C62.1893 20.2638 62.2523 20.7787 62.3259 21.2936C62.452 21.2936 62.6989 21.2831 63.0667 21.2621C63.4344 21.241 63.8232 21.2148 64.233 21.1832C64.6533 21.1517 65.0421 21.1149 65.3994 21.0729C65.7566 21.0204 65.9878 20.9626 66.0929 20.8995C66.2715 20.784 66.3766 20.6158 66.4081 20.3952C66.4501 20.1745 66.4712 19.9696 66.4712 19.7805ZM66.3451 24.2252C66.3451 24.0676 66.3241 23.91 66.282 23.7524C66.24 23.5843 66.1559 23.4477 66.0298 23.3426C65.9983 23.3111 65.9248 23.2848 65.8092 23.2638C65.6936 23.2428 65.5728 23.2323 65.4467 23.2323C65.3206 23.2218 65.1997 23.2165 65.0841 23.2165C64.9686 23.206 64.8897 23.2007 64.8477 23.2007C64.3959 23.2007 63.9493 23.227 63.508 23.2795C63.0667 23.3216 62.6253 23.3689 62.184 23.4214L62.4362 25.4231C62.4887 25.4231 62.6096 25.4179 62.7987 25.4074C62.9984 25.3969 63.2243 25.3863 63.4765 25.3758C63.7392 25.3548 64.0124 25.3338 64.2961 25.3128C64.5903 25.2918 64.8635 25.2655 65.1157 25.234C65.3679 25.2025 65.5833 25.1709 65.7619 25.1394C65.9405 25.0974 66.0509 25.0501 66.0929 24.9976C66.1875 24.882 66.2505 24.7611 66.282 24.635C66.3241 24.5089 66.3451 24.3723 66.3451 24.2252ZM83.7301 21.9871C83.7301 22.2918 83.7301 22.6123 83.7301 22.9485C83.7301 23.2848 83.6933 23.6053 83.6198 23.91C83.5673 24.1412 83.5095 24.3461 83.4464 24.5247C83.3834 24.6928 83.3046 24.8504 83.21 24.9976C83.1154 25.1342 82.9998 25.2655 82.8632 25.3916C82.7266 25.5072 82.5585 25.6228 82.3589 25.7384C82.2958 25.7804 82.1277 25.8382 81.8545 25.9117C81.5813 25.9748 81.2398 26.0536 80.83 26.1482C80.4307 26.2427 79.9789 26.3425 79.4745 26.4476C78.9806 26.5527 78.471 26.6578 77.9456 26.7629C77.4307 26.8574 76.9159 26.9573 76.401 27.0623C75.8966 27.1569 75.4343 27.2462 75.014 27.3303C74.6042 27.4038 74.2521 27.4721 73.9579 27.5352C73.6742 27.5877 73.4851 27.6192 73.3905 27.6297C73.2119 25.7068 73.0438 23.7997 72.8861 21.9083C72.7285 20.0169 72.6077 18.1045 72.5236 16.1711C73.4063 16.2026 74.2837 16.2394 75.1558 16.2814C76.028 16.3129 76.9106 16.3602 77.8038 16.4232C78.0349 16.4443 78.3712 16.4705 78.8125 16.5021C79.2643 16.5336 79.7319 16.5809 80.2153 16.6439C80.6986 16.6964 81.1505 16.7647 81.5708 16.8488C82.0016 16.9329 82.3116 17.0379 82.5007 17.164C82.7424 17.3427 82.9578 17.5843 83.1469 17.8891C83.3361 18.1938 83.4727 18.4933 83.5567 18.7875C83.5988 18.9241 83.6303 19.1395 83.6513 19.4337C83.6723 19.7174 83.6881 20.0221 83.6986 20.3479C83.7091 20.6736 83.7144 20.9889 83.7144 21.2936C83.7249 21.5983 83.7301 21.8295 83.7301 21.9871ZM79.8055 22.192C79.8055 22.0764 79.8002 21.9556 79.7897 21.8295C79.7897 21.6929 79.7845 21.5668 79.774 21.4512C79.7529 21.2831 79.7214 21.1097 79.6794 20.9311C79.6479 20.7419 79.6006 20.5633 79.5375 20.3952C79.4745 20.2165 79.3957 20.0537 79.3011 19.9066C79.2065 19.7489 79.091 19.6123 78.9544 19.4968C78.8808 19.4337 78.7022 19.3864 78.4185 19.3549C78.1348 19.3129 77.8248 19.2866 77.4885 19.2761C77.1523 19.2551 76.837 19.2446 76.5428 19.2446C76.2486 19.2341 76.0595 19.2288 75.9754 19.2288H75.3292C75.4132 20.0484 75.4868 20.8575 75.5498 21.6561C75.6234 22.4442 75.6864 23.248 75.739 24.0676C75.9386 24.0571 76.2223 24.0308 76.5901 23.9888C76.9684 23.9363 77.3519 23.8732 77.7407 23.7997C78.1295 23.7156 78.492 23.6158 78.8283 23.5002C79.1645 23.3741 79.4062 23.227 79.5533 23.0589C79.6689 22.9328 79.7372 22.8014 79.7582 22.6648C79.7897 22.5177 79.8055 22.3601 79.8055 22.192ZM58.6692 37.9871C58.6692 38.2918 58.6692 38.6123 58.6692 38.9485C58.6692 39.2848 58.6324 39.6053 58.5588 39.91C58.5063 40.1412 58.4485 40.3461 58.3855 40.5247C58.3224 40.6928 58.2436 40.8504 58.149 40.9976C58.0545 41.1342 57.9389 41.2655 57.8023 41.3916C57.6657 41.5072 57.4976 41.6228 57.2979 41.7384C57.2349 41.7804 57.0667 41.8382 56.7935 41.9117C56.5203 41.9748 56.1788 42.0536 55.769 42.1482C55.3697 42.2427 54.9179 42.3425 54.4135 42.4476C53.9197 42.5527 53.41 42.6578 52.8847 42.7629C52.3698 42.8574 51.8549 42.9573 51.34 43.0623C50.8357 43.1569 50.3733 43.2462 49.953 43.3303C49.5432 43.4038 49.1912 43.4721 48.897 43.5352C48.6133 43.5877 48.4241 43.6192 48.3296 43.6297C48.1509 41.7068 47.9828 39.7997 47.8252 37.9083C47.6676 36.0169 47.5467 34.1045 47.4627 32.1711C48.3453 32.2026 49.2227 32.2394 50.0949 32.2814C50.967 32.3129 51.8496 32.3602 52.7428 32.4232C52.974 32.4443 53.3102 32.4705 53.7515 32.5021C54.2034 32.5336 54.671 32.5809 55.1543 32.6439C55.6377 32.6964 56.0895 32.7647 56.5098 32.8488C56.9406 32.9329 57.2506 33.0379 57.4398 33.164C57.6814 33.3427 57.8969 33.5843 58.086 33.8891C58.2751 34.1938 58.4117 34.4933 58.4958 34.7875C58.5378 34.9241 58.5693 35.1395 58.5904 35.4337C58.6114 35.7174 58.6271 36.0221 58.6376 36.3479C58.6482 36.6736 58.6534 36.9889 58.6534 37.2936C58.6639 37.5983 58.6692 37.8295 58.6692 37.9871ZM54.7445 38.192C54.7445 38.0764 54.7393 37.9556 54.7288 37.8295C54.7288 37.6929 54.7235 37.5668 54.713 37.4512C54.692 37.2831 54.6605 37.1097 54.6184 36.9311C54.5869 36.7419 54.5396 36.5633 54.4766 36.3952C54.4135 36.2165 54.3347 36.0537 54.2402 35.9066C54.1456 35.7489 54.03 35.6123 53.8934 35.4968C53.8198 35.4337 53.6412 35.3864 53.3575 35.3549C53.0738 35.3129 52.7638 35.2866 52.4276 35.2761C52.0913 35.2551 51.7761 35.2446 51.4819 35.2446C51.1877 35.2341 50.9985 35.2288 50.9145 35.2288H50.2682C50.3523 36.0484 50.4258 36.8575 50.4889 37.6561C50.5624 38.4442 50.6255 39.248 50.678 40.0676C50.8777 40.0571 51.1614 40.0308 51.5292 39.9888C51.9074 39.9363 52.291 39.8732 52.6798 39.7997C53.0685 39.7156 53.4311 39.6158 53.7673 39.5002C54.1036 39.3741 54.3452 39.227 54.4923 39.0589C54.6079 38.9328 54.6762 38.8014 54.6972 38.6648C54.7288 38.5177 54.7445 38.3601 54.7445 38.192ZM72.0823 37.4039C72.0823 37.488 72.0823 37.572 72.0823 37.6561C72.0823 37.7297 72.077 37.8085 72.0665 37.8925C72.056 38.0396 72.0298 38.2813 71.9877 38.6176C71.9457 38.9538 71.8879 39.3058 71.8143 39.6736C71.7408 40.0308 71.6515 40.3618 71.5464 40.6666C71.4413 40.9713 71.3257 41.1657 71.1996 41.2497C71.1366 41.2918 70.9212 41.3286 70.5534 41.3601C70.1962 41.3916 69.7548 41.4231 69.2294 41.4546C68.7146 41.4862 68.1524 41.5124 67.543 41.5335C66.9335 41.5545 66.3503 41.5755 65.7934 41.5965C65.247 41.607 64.7637 41.6175 64.3433 41.628C63.9335 41.6385 63.6603 41.6438 63.5237 41.6438C63.4607 41.6438 63.3504 41.6438 63.1928 41.6438C63.0456 41.6438 62.888 41.6438 62.7199 41.6438C62.5518 41.6333 62.3942 41.6228 62.2471 41.6123C62.0999 41.6018 61.9949 41.586 61.9318 41.565C61.7847 41.5124 61.6376 41.4284 61.4905 41.3128C61.3434 41.1867 61.2068 41.0501 61.0807 40.903C60.9546 40.7454 60.839 40.5878 60.7339 40.4301C60.6394 40.262 60.5711 40.1044 60.529 39.9573C60.4975 39.8417 60.4712 39.6683 60.4502 39.4372C60.4292 39.1955 60.4135 38.9485 60.4029 38.6964C60.3924 38.4337 60.3819 38.1815 60.3714 37.9398C60.3714 37.6981 60.3714 37.5142 60.3714 37.3882C60.3714 37.1885 60.3767 36.9153 60.3872 36.5685C60.3977 36.2113 60.4292 35.8488 60.4818 35.481C60.5343 35.1132 60.6078 34.7717 60.7024 34.4565C60.8075 34.1308 60.9546 33.9048 61.1437 33.7787C61.2278 33.7262 61.3854 33.6789 61.6166 33.6369C61.8478 33.5949 62.121 33.5581 62.4362 33.5266C62.7514 33.495 63.0877 33.474 63.4449 33.4635C63.8022 33.4425 64.149 33.432 64.4852 33.432C64.832 33.4215 65.1524 33.4162 65.4467 33.4162C65.7409 33.4162 65.9773 33.4215 66.1559 33.432C66.3135 33.4425 66.5395 33.453 66.8337 33.4635C67.1279 33.4635 67.4536 33.4688 67.8109 33.4793C68.1787 33.4898 68.557 33.5108 68.9457 33.5423C69.3345 33.5633 69.697 33.5949 70.0333 33.6369C70.3695 33.6789 70.6638 33.7367 70.9159 33.8103C71.1786 33.8733 71.352 33.9521 71.4361 34.0467C71.5727 34.1938 71.683 34.4145 71.7671 34.7087C71.8511 35.0029 71.9142 35.3181 71.9562 35.6544C72.0087 35.9801 72.0403 36.3059 72.0508 36.6316C72.0718 36.9468 72.0823 37.2043 72.0823 37.4039ZM68.7408 37.7349C68.7408 37.6088 68.7356 37.4617 68.7251 37.2936C68.7146 37.1255 68.6988 36.9573 68.6778 36.7892C68.6568 36.6106 68.6253 36.4425 68.5832 36.2848C68.5412 36.1167 68.4886 35.9801 68.4256 35.875C68.3415 35.7384 68.1787 35.6334 67.937 35.5598C67.6953 35.4862 67.4274 35.4337 67.1332 35.4022C66.8494 35.3602 66.5657 35.3339 66.282 35.3234C66.0088 35.3129 65.8039 35.3076 65.6673 35.3076C65.5938 35.3076 65.4624 35.3129 65.2733 35.3234C65.0841 35.3234 64.8845 35.3286 64.6743 35.3391C64.4747 35.3496 64.2856 35.3707 64.1069 35.4022C63.9283 35.4232 63.8127 35.4495 63.7602 35.481C63.6656 35.544 63.592 35.6439 63.5395 35.7805C63.487 35.9066 63.4449 36.0484 63.4134 36.206C63.3924 36.3636 63.3766 36.5213 63.3661 36.6789C63.3661 36.826 63.3661 36.9468 63.3661 37.0414C63.3661 37.136 63.3714 37.3093 63.3819 37.5615C63.4029 37.8032 63.4239 38.0659 63.4449 38.3496C63.4765 38.6228 63.5132 38.875 63.5553 39.1062C63.5973 39.3373 63.6498 39.4844 63.7129 39.5475C63.7864 39.6316 63.923 39.6999 64.1227 39.7524C64.3328 39.8049 64.5535 39.8522 64.7847 39.8942C65.0264 39.9258 65.2575 39.952 65.4782 39.9731C65.6988 39.9836 65.8565 39.9888 65.951 39.9888C66.1192 39.9888 66.3188 39.9836 66.55 39.9731C66.7811 39.9625 67.0123 39.9363 67.2435 39.8942C67.4852 39.8522 67.7111 39.7944 67.9212 39.7209C68.1314 39.6473 68.2995 39.5475 68.4256 39.4214C68.4992 39.3478 68.557 39.2375 68.599 39.0904C68.641 38.9433 68.6725 38.7857 68.6936 38.6176C68.7146 38.4494 68.7251 38.2866 68.7251 38.1289C68.7356 37.9608 68.7408 37.8295 68.7408 37.7349ZM82.4534 32.707L82.3589 34.756C82.0331 34.7349 81.7074 34.7192 81.3816 34.7087C81.0559 34.6982 80.7302 34.6929 80.4044 34.6929C80.2678 34.6929 80.0734 34.6982 79.8212 34.7087C79.5691 34.7087 79.2853 34.7139 78.9701 34.7244C78.6654 34.7349 78.3502 34.7507 78.0244 34.7717C77.6987 34.7927 77.3992 34.8138 77.126 34.8348C76.8528 34.8558 76.6216 34.8821 76.4325 34.9136C76.2434 34.9451 76.1278 34.9766 76.0857 35.0081C75.9491 35.1447 75.8808 35.3024 75.8808 35.481C75.8808 35.5966 75.9124 35.6912 75.9754 35.7647C75.9964 35.7962 76.112 35.8225 76.3222 35.8435C76.5323 35.8645 76.7898 35.8855 77.0945 35.9066C77.3992 35.9171 77.7302 35.9276 78.0875 35.9381C78.4552 35.9381 78.802 35.9433 79.1277 35.9538C79.464 35.9538 79.7582 35.9591 80.0104 35.9696C80.2731 35.9801 80.457 35.9906 80.562 36.0011C80.9613 36.0537 81.2766 36.1693 81.5077 36.3479C81.7494 36.5265 81.9333 36.7524 82.0594 37.0256C82.1855 37.2883 82.2643 37.5878 82.2958 37.924C82.3378 38.2603 82.3589 38.6018 82.3589 38.9485C82.3589 39.1167 82.3431 39.3163 82.3116 39.5475C82.2906 39.7787 82.2538 40.0098 82.2012 40.241C82.1487 40.4722 82.0699 40.6876 81.9648 40.8872C81.8703 41.0869 81.7547 41.2445 81.6181 41.3601C81.4605 41.4862 81.203 41.5912 80.8457 41.6753C80.499 41.7594 80.1207 41.8277 79.7109 41.8802C79.3116 41.9327 78.9228 41.9695 78.5446 41.9905C78.1663 42.0116 77.8773 42.0221 77.6777 42.0221C76.9842 42.0221 76.2906 41.9853 75.5971 41.9117C74.9036 41.8277 74.2154 41.7384 73.5324 41.6438V38.6333C74.1944 38.7699 74.8563 38.8487 75.5183 38.8697C76.1908 38.8908 76.8633 38.9275 77.5358 38.9801C77.6724 38.9906 77.8773 39.0011 78.1505 39.0116C78.4342 39.0116 78.7179 39.0063 79.0016 38.9958C79.2853 38.9748 79.5428 38.938 79.774 38.8855C80.0051 38.833 80.147 38.7594 80.1995 38.6648C80.2205 38.6333 80.231 38.5965 80.231 38.5545C80.231 38.5125 80.231 38.4757 80.231 38.4442C80.231 38.3601 80.2205 38.255 80.1995 38.1289C80.189 37.9923 80.1575 37.8873 80.105 37.8137C80.0944 37.8032 80.0577 37.798 79.9946 37.798C79.9316 37.7874 79.8948 37.7822 79.8843 37.7822C79.2959 37.7507 78.7074 37.7349 78.119 37.7349C77.5306 37.7244 76.9369 37.6929 76.3379 37.6403C76.0963 37.6193 75.8493 37.5983 75.5971 37.5773C75.3555 37.5458 75.1138 37.5037 74.8721 37.4512C74.6725 37.4092 74.4886 37.3619 74.3204 37.3093C74.1628 37.2568 74.021 37.1885 73.8949 37.1044C73.7793 37.0204 73.6795 36.9153 73.5954 36.7892C73.5113 36.6526 73.4536 36.474 73.422 36.2533C73.401 36.1798 73.3905 36.1115 73.3905 36.0484C73.3905 35.9749 73.3905 35.8961 73.3905 35.812C73.3905 35.6229 73.401 35.4074 73.422 35.1658C73.443 34.9241 73.4798 34.6824 73.5324 34.4407C73.5954 34.1991 73.669 33.9731 73.753 33.763C73.8476 33.5423 73.9684 33.3637 74.1155 33.2271C74.2101 33.1325 74.3782 33.0537 74.6199 32.9907C74.8616 32.9276 75.14 32.8751 75.4553 32.833C75.7705 32.7805 76.1068 32.7385 76.464 32.707C76.8213 32.6754 77.1628 32.6544 77.4885 32.6439C77.8248 32.6229 78.1242 32.6124 78.3869 32.6124C78.6601 32.6019 78.865 32.5966 79.0016 32.5966C79.5901 32.5966 80.168 32.6071 80.7354 32.6281C81.3133 32.6492 81.886 32.6754 82.4534 32.707ZM95.0785 36.537C95.0785 37.4197 95.047 38.2971 94.9839 39.1692C94.9209 40.0414 94.8578 40.9135 94.7948 41.7856C93.6179 41.8907 92.4463 41.98 91.2799 42.0536C90.1136 42.1271 88.942 42.1639 87.7651 42.1639C87.66 42.1639 87.4656 42.1639 87.1819 42.1639C86.8982 42.1534 86.5987 42.1429 86.2835 42.1324C85.9683 42.1114 85.6688 42.0904 85.3851 42.0693C85.1014 42.0378 84.9122 41.9958 84.8177 41.9433C84.4709 41.7541 84.2292 41.5177 84.0926 41.234C83.956 40.9398 83.8877 40.6088 83.8877 40.241C83.8877 40.1149 83.893 39.9468 83.9035 39.7366C83.914 39.5265 83.935 39.3058 83.9665 39.0746C83.9981 38.8435 84.0401 38.6281 84.0926 38.4284C84.1452 38.2288 84.2082 38.0817 84.2818 37.9871C84.3763 37.861 84.5918 37.7559 84.928 37.6719C85.2643 37.5773 85.6635 37.5037 86.1259 37.4512C86.5987 37.3987 87.1031 37.3566 87.639 37.3251C88.1854 37.2936 88.7055 37.2726 89.1994 37.2621C89.6933 37.241 90.1346 37.2305 90.5234 37.2305C90.9122 37.2305 91.1906 37.2305 91.3587 37.2305C91.3903 36.9994 91.406 36.7734 91.406 36.5528C91.406 36.5318 91.406 36.4792 91.406 36.3952C91.406 36.3006 91.4008 36.2428 91.3903 36.2218C91.3587 36.1587 91.2589 36.1062 91.0908 36.0642C90.9227 36.0221 90.7125 35.9906 90.4603 35.9696C90.2187 35.9486 89.9507 35.9328 89.6565 35.9223C89.3728 35.9013 89.0943 35.8908 88.8211 35.8908C88.5479 35.8908 88.3062 35.8908 88.0961 35.8908C87.8859 35.8908 87.7336 35.8908 87.639 35.8908C86.977 35.8908 86.315 35.9066 85.653 35.9381C84.9911 35.9591 84.3291 35.9801 83.6671 36.0011C83.7091 35.6018 83.7406 35.1973 83.7616 34.7875C83.7932 34.3777 83.7984 33.9731 83.7774 33.5738C84.5445 33.4372 85.3115 33.3427 86.0786 33.2901C86.8562 33.2271 87.639 33.1956 88.4271 33.1956C88.7108 33.1956 89.0208 33.2008 89.357 33.2113C89.6933 33.2113 90.0295 33.2218 90.3658 33.2428C90.702 33.2534 91.033 33.2744 91.3587 33.3059C91.695 33.3374 92.005 33.3794 92.2887 33.432C92.5829 33.4845 92.8719 33.5791 93.1556 33.7157C93.4498 33.8523 93.723 34.0204 93.9752 34.2201C94.2274 34.4197 94.448 34.6509 94.6372 34.9136C94.8263 35.1658 94.9629 35.439 95.047 35.7332C95.0575 35.7647 95.0627 35.8172 95.0627 35.8908C95.0732 35.9644 95.0785 36.0484 95.0785 36.143C95.0785 36.227 95.0785 36.3059 95.0785 36.3794C95.0785 36.453 95.0785 36.5055 95.0785 36.537ZM91.5636 40.241V38.2235C91.2589 38.213 90.9542 38.2078 90.6495 38.2078C90.3447 38.1972 90.04 38.192 89.7353 38.192C89.6722 38.192 89.4936 38.1972 89.1994 38.2078C88.9157 38.2078 88.6057 38.2183 88.2695 38.2393C87.9437 38.2603 87.6443 38.2866 87.3711 38.3181C87.0979 38.3496 86.9402 38.3969 86.8982 38.4599C86.8457 38.544 86.8089 38.6333 86.7879 38.7279C86.7774 38.8119 86.7721 38.9013 86.7721 38.9958C86.7721 39.0694 86.7774 39.1692 86.7879 39.2953C86.7984 39.4214 86.8141 39.5527 86.8352 39.6893C86.8667 39.8259 86.8982 39.952 86.9297 40.0676C86.9613 40.1832 87.0033 40.2673 87.0558 40.3198C87.0979 40.3723 87.1662 40.4144 87.2607 40.4459C87.3658 40.4669 87.4761 40.4879 87.5917 40.5089C87.7073 40.5195 87.8229 40.53 87.9385 40.5405C88.0541 40.5405 88.1434 40.5405 88.2064 40.5405C88.4586 40.5405 88.7266 40.53 89.0103 40.5089C89.3045 40.4879 89.5987 40.4669 89.8929 40.4459C90.1976 40.4144 90.4919 40.3829 90.7756 40.3513C91.0593 40.3093 91.322 40.2725 91.5636 40.241ZM107.12 38.0659C107.12 38.5072 107.115 38.9485 107.105 39.3899C107.105 39.8207 107.105 40.2568 107.105 40.6981C107.094 40.9293 107.089 41.1657 107.089 41.4074C107.099 41.649 107.094 41.8907 107.073 42.1324C107.042 42.3636 107.01 42.6105 106.978 42.8732C106.947 43.1254 106.894 43.3776 106.821 43.6297C106.747 43.8819 106.647 44.1184 106.521 44.339C106.406 44.5597 106.248 44.7488 106.049 44.9064C105.996 44.9485 105.891 44.9852 105.733 45.0168C105.576 45.0483 105.392 45.0798 105.182 45.1113C104.972 45.1429 104.746 45.1691 104.504 45.1901C104.262 45.2112 104.031 45.2269 103.81 45.2374C103.59 45.2584 103.39 45.2742 103.211 45.2847C103.033 45.3057 102.907 45.3162 102.833 45.3162C102.171 45.3373 101.514 45.353 100.863 45.3635C100.222 45.374 99.5705 45.3793 98.9085 45.3793H97.8998C97.8788 45.2007 97.8578 45.0168 97.8368 44.8276C97.8157 44.6385 97.8052 44.4493 97.8052 44.2602C97.8052 44.0501 97.7842 43.8346 97.7422 43.614C97.7002 43.3828 97.6529 43.1569 97.6003 42.9362L98.6406 42.952C98.7036 42.952 98.877 42.952 99.1607 42.952C99.455 42.9415 99.7965 42.9362 100.185 42.9362C100.574 42.9257 100.989 42.9152 101.43 42.9047C101.882 42.8837 102.297 42.8574 102.676 42.8259C103.054 42.7944 103.374 42.7576 103.637 42.7156C103.91 42.6735 104.063 42.6263 104.094 42.5737C104.178 42.4371 104.231 42.2848 104.252 42.1166C104.273 41.938 104.283 41.7699 104.283 41.6123C104.283 41.5282 104.278 41.4441 104.267 41.3601C104.267 41.2655 104.262 41.1762 104.252 41.0921C103.663 41.1342 103.08 41.1709 102.502 41.2025C101.924 41.234 101.336 41.2497 100.737 41.2497C100.6 41.2497 100.427 41.2497 100.217 41.2497C100.017 41.2497 99.807 41.2445 99.5863 41.234C99.3761 41.2235 99.166 41.2077 98.9558 41.1867C98.7562 41.1657 98.5933 41.1342 98.4672 41.0921C98.2571 41.0291 98.0417 40.9608 97.821 40.8872C97.6108 40.8032 97.4112 40.7033 97.2221 40.5878C97.0329 40.4722 96.8648 40.3356 96.7177 40.178C96.5811 40.0098 96.4865 39.8102 96.434 39.579C96.4025 39.4634 96.3814 39.3373 96.3709 39.2007C96.3709 39.0641 96.3709 38.938 96.3709 38.8225C96.3709 38.5282 96.3867 38.1552 96.4182 37.7034C96.4497 37.2515 96.5023 36.7945 96.5758 36.3321C96.6599 35.8593 96.765 35.4179 96.8911 35.0081C97.0277 34.5878 97.1958 34.2726 97.3954 34.0625C97.511 33.9364 97.6949 33.826 97.9471 33.7315C98.2098 33.6369 98.504 33.5581 98.8297 33.495C99.1555 33.432 99.497 33.3794 99.8542 33.3374C100.222 33.2849 100.579 33.2481 100.926 33.2271C101.273 33.2061 101.588 33.1903 101.872 33.1798C102.166 33.1693 102.397 33.164 102.565 33.164C103.154 33.164 103.742 33.1798 104.331 33.2113L104.441 32.2026L107.089 32.5966C107.099 33.5108 107.105 34.4197 107.105 35.3234C107.115 36.227 107.12 37.1412 107.12 38.0659ZM104.331 37.7664C104.331 37.4302 104.325 37.1044 104.315 36.7892C104.304 36.4635 104.289 36.1325 104.267 35.7962C103.805 35.6912 103.343 35.6071 102.88 35.544C102.418 35.481 101.945 35.4495 101.462 35.4495C101.378 35.4495 101.252 35.4547 101.084 35.4652C100.916 35.4757 100.737 35.4968 100.548 35.5283C100.369 35.5493 100.201 35.5861 100.043 35.6386C99.8858 35.6806 99.7754 35.7332 99.7124 35.7962C99.6178 35.9013 99.56 36.0221 99.539 36.1587C99.518 36.2953 99.5075 36.4319 99.5075 36.5685C99.5075 36.6841 99.518 36.8628 99.539 37.1044C99.5705 37.3356 99.6073 37.5773 99.6493 37.8295C99.6914 38.0817 99.7439 38.3181 99.807 38.5387C99.87 38.7594 99.9331 38.9118 99.9961 38.9958C100.059 39.0799 100.138 39.1429 100.233 39.185C100.327 39.227 100.427 39.2585 100.532 39.2795C100.648 39.2901 100.758 39.3006 100.863 39.3111C100.979 39.3111 101.078 39.3111 101.162 39.3111C101.373 39.3111 101.625 39.3058 101.919 39.2953C102.224 39.2743 102.523 39.2428 102.817 39.2007C103.122 39.1587 103.406 39.1009 103.669 39.0274C103.931 38.9433 104.131 38.833 104.267 38.6964C104.289 38.6859 104.304 38.6333 104.315 38.5387C104.325 38.4442 104.331 38.3444 104.331 38.2393C104.331 38.1342 104.331 38.0344 104.331 37.9398C104.331 37.8452 104.331 37.7874 104.331 37.7664ZM119.604 37.798C118.227 37.8715 116.856 37.9346 115.49 37.9871C114.124 38.0291 112.752 38.0764 111.376 38.1289C111.365 38.171 111.36 38.213 111.36 38.255C111.36 38.2971 111.36 38.3391 111.36 38.3811C111.36 38.7384 111.439 39.0116 111.597 39.2007C111.765 39.3899 111.97 39.5265 112.211 39.6105C112.453 39.6841 112.721 39.7261 113.015 39.7366C113.309 39.7471 113.583 39.7524 113.835 39.7524C114.539 39.7524 115.243 39.7314 115.947 39.6893C116.651 39.6368 117.36 39.5843 118.075 39.5317L118.201 42.0378C117.507 42.0693 116.814 42.0956 116.12 42.1166C115.437 42.1376 114.749 42.1482 114.055 42.1482C113.908 42.1482 113.635 42.1482 113.236 42.1482C112.847 42.1376 112.427 42.1219 111.975 42.1009C111.534 42.0693 111.119 42.0326 110.73 41.9905C110.341 41.9485 110.084 41.8907 109.957 41.8172C109.632 41.628 109.374 41.3863 109.185 41.0921C109.006 40.7979 108.865 40.4774 108.76 40.1307C108.665 39.7839 108.597 39.4319 108.555 39.0746C108.523 38.7069 108.502 38.3549 108.492 38.0186C108.481 37.9661 108.476 37.9135 108.476 37.861C108.486 37.798 108.492 37.7402 108.492 37.6876C108.492 37.1307 108.549 36.6158 108.665 36.143C108.791 35.6596 109.017 35.192 109.343 34.7402C109.563 34.425 109.889 34.1623 110.32 33.9521C110.751 33.742 111.218 33.5791 111.723 33.4635C112.227 33.3374 112.731 33.2534 113.236 33.2113C113.74 33.1588 114.176 33.1325 114.544 33.1325C114.87 33.1325 115.269 33.164 115.742 33.2271C116.215 33.2796 116.682 33.3742 117.145 33.5108C117.618 33.6474 118.043 33.826 118.421 34.0467C118.8 34.2568 119.057 34.5195 119.194 34.8348C119.215 34.8978 119.236 35.0081 119.257 35.1658C119.288 35.3129 119.32 35.4862 119.351 35.6859C119.383 35.875 119.409 36.0799 119.43 36.3006C119.462 36.5213 119.488 36.7314 119.509 36.9311C119.53 37.1307 119.546 37.3093 119.556 37.467C119.577 37.6246 119.593 37.7349 119.604 37.798ZM117.46 36.6474C117.397 36.185 117.276 35.8225 117.097 35.5598C116.929 35.2866 116.714 35.087 116.451 34.9609C116.199 34.8243 115.905 34.7402 115.569 34.7087C115.243 34.6666 114.891 34.6456 114.513 34.6456C114.386 34.6456 114.229 34.6509 114.04 34.6614C113.851 34.6614 113.661 34.6772 113.472 34.7087C113.283 34.7297 113.105 34.7665 112.936 34.819C112.768 34.8715 112.637 34.9451 112.542 35.0397C112.469 35.1027 112.406 35.192 112.353 35.3076C112.311 35.4127 112.274 35.5283 112.243 35.6544C112.211 35.7805 112.185 35.9066 112.164 36.0327C112.154 36.1482 112.148 36.2481 112.148 36.3321C112.148 36.5002 112.164 36.6631 112.196 36.8207L117.46 36.6474ZM57.3925 55.91L57.3767 58.3688C56.8934 58.4634 56.4153 58.5527 55.9424 58.6368C55.4696 58.7208 54.9915 58.7944 54.5081 58.8574C54.0037 58.9205 53.4994 58.9783 52.995 59.0308C52.4906 59.0833 51.9862 59.1096 51.4819 59.1096C51.3348 59.1096 51.1194 59.1044 50.8357 59.0939C50.5519 59.0833 50.2577 59.0623 49.953 59.0308C49.6483 58.9993 49.3593 58.9625 49.0861 58.9205C48.8129 58.8679 48.6133 58.8049 48.4872 58.7313C48.3716 58.6578 48.2613 58.5737 48.1562 58.4791C48.0511 58.3741 47.9565 58.269 47.8725 58.1639C47.6518 57.8907 47.4679 57.5912 47.3208 57.2655C47.1737 56.9398 47.0581 56.6035 46.9741 56.2568C46.89 55.91 46.8269 55.558 46.7849 55.2007C46.7534 54.8435 46.7376 54.4915 46.7376 54.1447C46.7376 53.7244 46.7586 53.2883 46.8007 52.8365C46.8532 52.3847 46.932 51.9381 47.0371 51.4968C47.1422 51.0554 47.2788 50.6299 47.4469 50.2201C47.6255 49.8103 47.8409 49.432 48.0931 49.0852C48.1667 48.9907 48.2613 48.8751 48.3768 48.7385C48.4924 48.6019 48.608 48.5021 48.7236 48.439C49.0073 48.2814 49.3225 48.15 49.6693 48.045C50.0266 47.9399 50.3943 47.8611 50.7726 47.8085C51.1509 47.7455 51.5239 47.7035 51.8917 47.6824C52.27 47.6509 52.6167 47.6352 52.9319 47.6352C53.5309 47.6352 54.1298 47.6719 54.7288 47.7455C55.3277 47.8085 55.9109 47.9241 56.4783 48.0923C56.4573 48.376 56.4415 48.6649 56.431 48.9591C56.4205 49.2428 56.4153 49.5266 56.4153 49.8103C56.4153 50.4933 56.431 51.1815 56.4625 51.875C55.9897 51.6964 55.4958 51.5703 54.981 51.4968C54.4661 51.4127 53.9564 51.3707 53.4521 51.3707C53.347 51.3707 53.1946 51.3812 52.995 51.4022C52.7953 51.4127 52.5694 51.4337 52.3172 51.4652C52.0651 51.4862 51.8024 51.5178 51.5292 51.5598C51.2665 51.6018 51.0195 51.6544 50.7884 51.7174C50.5572 51.7805 50.3523 51.854 50.1737 51.9381C50.0055 52.0221 49.8952 52.1115 49.8427 52.206C49.8006 52.2901 49.7639 52.4109 49.7323 52.5685C49.7113 52.7157 49.6903 52.8733 49.6693 53.0414C49.6588 53.2095 49.6483 53.3724 49.6378 53.53C49.6378 53.6876 49.6378 53.8137 49.6378 53.9083C49.6378 54.0029 49.6483 54.192 49.6693 54.4757C49.6903 54.7594 49.7166 55.0641 49.7481 55.3899C49.7796 55.7051 49.8164 55.9941 49.8584 56.2568C49.911 56.5195 49.9635 56.6718 50.016 56.7138C50.0686 56.7454 50.1526 56.7664 50.2682 56.7769C50.3943 56.7769 50.4784 56.7769 50.5204 56.7769C51.0353 56.7769 51.587 56.7506 52.1754 56.6981C52.7638 56.6455 53.3575 56.5772 53.9564 56.4932C54.5659 56.3986 55.1648 56.304 55.7533 56.2095C56.3417 56.1044 56.8881 56.0046 57.3925 55.91ZM69.7653 52.537C69.7653 53.4197 69.7338 54.2971 69.6708 55.1692C69.6077 56.0414 69.5447 56.9135 69.4816 57.7856C68.3048 57.8907 67.1332 57.98 65.9668 58.0536C64.8004 58.1271 63.6288 58.1639 62.452 58.1639C62.3469 58.1639 62.1525 58.1639 61.8688 58.1639C61.5851 58.1534 61.2856 58.1429 60.9704 58.1324C60.6551 58.1114 60.3557 58.0904 60.072 58.0693C59.7882 58.0378 59.5991 57.9958 59.5045 57.9433C59.1578 57.7541 58.9161 57.5177 58.7795 57.234C58.6429 56.9398 58.5746 56.6088 58.5746 56.241C58.5746 56.1149 58.5799 55.9468 58.5904 55.7366C58.6009 55.5265 58.6219 55.3058 58.6534 55.0746C58.6849 54.8435 58.727 54.6281 58.7795 54.4284C58.832 54.2288 58.8951 54.0817 58.9686 53.9871C59.0632 53.861 59.2786 53.7559 59.6149 53.6719C59.9511 53.5773 60.3504 53.5037 60.8127 53.4512C61.2856 53.3987 61.79 53.3566 62.3259 53.3251C62.8723 53.2936 63.3924 53.2726 63.8863 53.2621C64.3801 53.241 64.8214 53.2305 65.2102 53.2305C65.599 53.2305 65.8775 53.2305 66.0456 53.2305C66.0771 52.9994 66.0929 52.7734 66.0929 52.5528C66.0929 52.5318 66.0929 52.4792 66.0929 52.3952C66.0929 52.3006 66.0876 52.2428 66.0771 52.2218C66.0456 52.1587 65.9458 52.1062 65.7777 52.0642C65.6095 52.0221 65.3994 51.9906 65.1472 51.9696C64.9055 51.9486 64.6376 51.9328 64.3433 51.9223C64.0596 51.9013 63.7812 51.8908 63.508 51.8908C63.2348 51.8908 62.9931 51.8908 62.7829 51.8908C62.5728 51.8908 62.4204 51.8908 62.3259 51.8908C61.6639 51.8908 61.0019 51.9066 60.3399 51.9381C59.6779 51.9591 59.0159 51.9801 58.3539 52.0011C58.396 51.6018 58.4275 51.1973 58.4485 50.7875C58.48 50.3777 58.4853 49.9731 58.4643 49.5738C59.2313 49.4372 59.9984 49.3427 60.7655 49.2901C61.543 49.2271 62.3259 49.1956 63.1139 49.1956C63.3977 49.1956 63.7076 49.2008 64.0439 49.2113C64.3801 49.2113 64.7164 49.2218 65.0526 49.2428C65.3889 49.2534 65.7199 49.2744 66.0456 49.3059C66.3818 49.3374 66.6918 49.3794 66.9755 49.432C67.2698 49.4845 67.5587 49.5791 67.8424 49.7157C68.1366 49.8523 68.4098 50.0204 68.662 50.2201C68.9142 50.4197 69.1349 50.6509 69.324 50.9136C69.5132 51.1658 69.6498 51.439 69.7338 51.7332C69.7443 51.7647 69.7496 51.8172 69.7496 51.8908C69.7601 51.9644 69.7653 52.0484 69.7653 52.143C69.7653 52.227 69.7653 52.3059 69.7653 52.3794C69.7653 52.453 69.7653 52.5055 69.7653 52.537ZM66.2505 56.241V54.2235C65.9458 54.213 65.6411 54.2078 65.3363 54.2078C65.0316 54.1972 64.7269 54.192 64.4222 54.192C64.3591 54.192 64.1805 54.1972 63.8863 54.2078C63.6026 54.2078 63.2926 54.2183 62.9563 54.2393C62.6306 54.2603 62.3311 54.2866 62.0579 54.3181C61.7847 54.3496 61.6271 54.3969 61.5851 54.4599C61.5325 54.544 61.4958 54.6333 61.4747 54.7279C61.4642 54.8119 61.459 54.9013 61.459 54.9958C61.459 55.0694 61.4642 55.1692 61.4747 55.2953C61.4852 55.4214 61.501 55.5527 61.522 55.6893C61.5535 55.8259 61.5851 55.952 61.6166 56.0676C61.6481 56.1832 61.6901 56.2673 61.7427 56.3198C61.7847 56.3723 61.853 56.4144 61.9476 56.4459C62.0527 56.4669 62.163 56.4879 62.2786 56.5089C62.3942 56.5195 62.5097 56.53 62.6253 56.5405C62.7409 56.5405 62.8302 56.5405 62.8933 56.5405C63.1455 56.5405 63.4134 56.53 63.6971 56.5089C63.9913 56.4879 64.2856 56.4669 64.5798 56.4459C64.8845 56.4144 65.1787 56.3829 65.4624 56.3513C65.7461 56.3093 66.0088 56.2725 66.2505 56.241ZM74.8091 47.5248C74.725 48.5441 74.6409 49.5581 74.5569 50.5668C74.4833 51.5756 74.4203 52.5896 74.3677 53.6088C74.3152 54.5335 74.2574 55.4529 74.1944 56.3671C74.1418 57.2708 74.0893 58.1849 74.0367 59.1096L71.6252 59.2357C71.6252 58.2795 71.6252 57.3338 71.6252 56.3986C71.6357 55.4529 71.6305 54.502 71.6094 53.5458C71.5884 52.5896 71.5464 51.6439 71.4834 50.7087C71.4203 49.763 71.3573 48.812 71.2942 47.8558L74.8091 47.5248ZM86.4254 51.3391C86.4254 51.8225 86.3623 52.2901 86.2362 52.7419C86.1627 52.7524 85.942 52.7682 85.5742 52.7892C85.217 52.7997 84.7862 52.8207 84.2818 52.8523C83.7879 52.8733 83.252 52.9048 82.6741 52.9468C82.1067 52.9783 81.576 53.0151 81.0822 53.0572C80.5988 53.0992 80.1838 53.1465 79.837 53.199C79.5008 53.241 79.3116 53.2831 79.2696 53.3251C79.1015 53.4722 78.9754 53.6508 78.8913 53.861C78.8072 54.0712 78.7652 54.2813 78.7652 54.4915C78.7652 54.6176 78.7757 54.7174 78.7967 54.7909C78.8283 54.854 78.8755 54.9275 78.9386 55.0116C78.9701 55.0431 79.0804 55.0694 79.2696 55.0904C79.4587 55.1114 79.6689 55.1272 79.9001 55.1377C80.1312 55.1482 80.3466 55.1587 80.5463 55.1692C80.7459 55.1692 80.8615 55.1692 80.893 55.1692C81.6496 55.1692 82.4061 55.1534 83.1627 55.1219C83.9193 55.0904 84.6758 55.0484 85.4324 54.9958L85.5585 57.7068C84.5077 57.7909 83.4517 57.875 82.3904 57.959C81.3396 58.0326 80.2836 58.0693 79.2223 58.0693C79.1698 58.0693 79.091 58.0693 78.9859 58.0693C78.8913 58.0693 78.7862 58.0693 78.6706 58.0693C78.5551 58.0588 78.4447 58.0483 78.3397 58.0378C78.2346 58.0273 78.161 58.0168 78.119 58.0063C77.8983 57.9433 77.6777 57.875 77.457 57.8014C77.2468 57.7173 77.0472 57.6175 76.8581 57.5019C76.6689 57.3758 76.5008 57.2287 76.3537 57.0606C76.2171 56.8925 76.1173 56.6876 76.0542 56.4459C76.0122 56.2883 75.9754 56.0834 75.9439 55.8312C75.9229 55.5685 75.9071 55.3006 75.8966 55.0274C75.8861 54.7542 75.8756 54.4862 75.8651 54.2235C75.8651 53.9608 75.8651 53.7402 75.8651 53.5615C75.8651 53.1517 75.8703 52.7682 75.8808 52.4109C75.8914 52.0537 75.9491 51.7279 76.0542 51.4337C76.1593 51.129 76.3274 50.861 76.5586 50.6299C76.8003 50.3882 77.1418 50.178 77.5831 49.9994C77.7827 49.9153 78.0822 49.8523 78.4815 49.8103C78.8808 49.7577 79.2959 49.7209 79.7267 49.6999C80.168 49.6684 80.5883 49.6474 80.9876 49.6369C81.3869 49.6264 81.6969 49.6211 81.9175 49.6211C82.6531 49.6211 83.3834 49.6369 84.1084 49.6684C84.8439 49.6999 85.5795 49.742 86.315 49.7945C86.3466 50.0572 86.3728 50.3199 86.3938 50.5826C86.4149 50.8348 86.4254 51.087 86.4254 51.3391ZM98.2781 58.8417L95.6144 58.952L95.4252 57.3601C95.2256 57.6333 94.9839 57.8644 94.7002 58.0536C94.427 58.2427 94.1275 58.3951 93.8018 58.5107C93.4866 58.6263 93.1556 58.7103 92.8088 58.7629C92.4726 58.8049 92.1416 58.8259 91.8158 58.8259C91.5636 58.8259 91.2484 58.8049 90.8701 58.7629C90.5024 58.7208 90.1241 58.663 89.7353 58.5895C89.357 58.5054 89.005 58.4003 88.6793 58.2742C88.3535 58.1482 88.1171 58.001 87.97 57.8329C87.8544 57.7068 87.7651 57.5072 87.702 57.234C87.6495 56.9503 87.6127 56.6508 87.5917 56.3356C87.5707 56.0203 87.5602 55.7156 87.5602 55.4214C87.5602 55.1272 87.5602 54.8908 87.5602 54.7121C87.5602 53.924 87.5917 53.1465 87.6548 52.3794C87.7178 51.6123 87.8071 50.8505 87.9227 50.094C88.2169 50.0625 88.5322 50.0467 88.8684 50.0467C89.1416 50.0467 89.4148 50.0677 89.688 50.1097C89.9612 50.1413 90.2344 50.1833 90.5076 50.2358C90.5076 50.2884 90.5129 50.4407 90.5234 50.6929C90.5339 50.9451 90.5444 51.2446 90.5549 51.5913C90.5759 51.9381 90.5969 52.3111 90.6179 52.7104C90.639 53.0992 90.66 53.4617 90.681 53.798C90.7125 54.1342 90.744 54.4232 90.7756 54.6648C90.8176 54.896 90.8596 55.0221 90.9017 55.0431C91.0593 55.1377 91.2326 55.1902 91.4218 55.2007C91.6109 55.2112 91.7948 55.2165 91.9734 55.2165C92.0995 55.2165 92.2939 55.2112 92.5566 55.2007C92.8298 55.1797 93.1083 55.1534 93.392 55.1219C93.6757 55.0799 93.9384 55.0326 94.1801 54.9801C94.4217 54.917 94.5846 54.8435 94.6687 54.7594C94.7002 54.7279 94.7212 54.6281 94.7317 54.4599C94.7527 54.2918 94.7632 54.1079 94.7632 53.9083C94.7738 53.7086 94.779 53.5248 94.779 53.3566C94.7895 53.178 94.7948 53.0729 94.7948 53.0414C94.7948 52.5685 94.7843 52.101 94.7632 51.6386C94.7422 51.1763 94.7212 50.7087 94.7002 50.2358L97.758 50.094C97.821 50.8295 97.8788 51.5651 97.9313 52.3006C97.9839 53.0256 98.0522 53.7559 98.1362 54.4915C98.1678 54.7331 98.1835 54.9801 98.1835 55.2323C98.194 55.4844 98.2045 55.7366 98.215 55.9888C98.2361 56.4617 98.2466 56.9345 98.2466 57.4074C98.2571 57.8802 98.2676 58.3583 98.2781 58.8417ZM103.338 47.5248C103.254 48.5441 103.169 49.5581 103.085 50.5668C103.012 51.5756 102.949 52.5896 102.896 53.6088C102.844 54.5335 102.786 55.4529 102.723 56.3671C102.67 57.2708 102.618 58.1849 102.565 59.1096L100.154 59.2357C100.154 58.2795 100.154 57.3338 100.154 56.3986C100.164 55.4529 100.159 54.502 100.138 53.5458C100.117 52.5896 100.075 51.6439 100.012 50.7087C99.9488 49.763 99.8858 48.812 99.8227 47.8558L103.338 47.5248ZM115.884 52.537C115.884 53.4197 115.852 54.2971 115.789 55.1692C115.726 56.0414 115.663 56.9135 115.6 57.7856C114.423 57.8907 113.252 57.98 112.085 58.0536C110.919 58.1271 109.747 58.1639 108.57 58.1639C108.465 58.1639 108.271 58.1639 107.987 58.1639C107.704 58.1534 107.404 58.1429 107.089 58.1324C106.774 58.1114 106.474 58.0904 106.19 58.0693C105.907 58.0378 105.718 57.9958 105.623 57.9433C105.276 57.7541 105.035 57.5177 104.898 57.234C104.761 56.9398 104.693 56.6088 104.693 56.241C104.693 56.1149 104.698 55.9468 104.709 55.7366C104.719 55.5265 104.74 55.3058 104.772 55.0746C104.803 54.8435 104.845 54.6281 104.898 54.4284C104.95 54.2288 105.014 54.0817 105.087 53.9871C105.182 53.861 105.397 53.7559 105.733 53.6719C106.07 53.5773 106.469 53.5037 106.931 53.4512C107.404 53.3987 107.908 53.3566 108.444 53.3251C108.991 53.2936 109.511 53.2726 110.005 53.2621C110.499 53.241 110.94 53.2305 111.329 53.2305C111.717 53.2305 111.996 53.2305 112.164 53.2305C112.196 52.9994 112.211 52.7734 112.211 52.5528C112.211 52.5318 112.211 52.4792 112.211 52.3952C112.211 52.3006 112.206 52.2428 112.196 52.2218C112.164 52.1587 112.064 52.1062 111.896 52.0642C111.728 52.0221 111.518 51.9906 111.266 51.9696C111.024 51.9486 110.756 51.9328 110.462 51.9223C110.178 51.9013 109.9 51.8908 109.626 51.8908C109.353 51.8908 109.112 51.8908 108.901 51.8908C108.691 51.8908 108.539 51.8908 108.444 51.8908C107.782 51.8908 107.12 51.9066 106.458 51.9381C105.796 51.9591 105.134 51.9801 104.472 52.0011C104.514 51.6018 104.546 51.1973 104.567 50.7875C104.598 50.3777 104.604 49.9731 104.583 49.5738C105.35 49.4372 106.117 49.3427 106.884 49.2901C107.661 49.2271 108.444 49.1956 109.232 49.1956C109.516 49.1956 109.826 49.2008 110.162 49.2113C110.499 49.2113 110.835 49.2218 111.171 49.2428C111.507 49.2534 111.838 49.2744 112.164 49.3059C112.5 49.3374 112.81 49.3794 113.094 49.432C113.388 49.4845 113.677 49.5791 113.961 49.7157C114.255 49.8523 114.528 50.0204 114.78 50.2201C115.033 50.4197 115.253 50.6509 115.442 50.9136C115.632 51.1658 115.768 51.439 115.852 51.7332C115.863 51.7647 115.868 51.8172 115.868 51.8908C115.879 51.9644 115.884 52.0484 115.884 52.143C115.884 52.227 115.884 52.3059 115.884 52.3794C115.884 52.453 115.884 52.5055 115.884 52.537ZM112.369 56.241V54.2235C112.064 54.213 111.76 54.2078 111.455 54.2078C111.15 54.1972 110.845 54.192 110.541 54.192C110.478 54.192 110.299 54.1972 110.005 54.2078C109.721 54.2078 109.411 54.2183 109.075 54.2393C108.749 54.2603 108.45 54.2866 108.176 54.3181C107.903 54.3496 107.746 54.3969 107.704 54.4599C107.651 54.544 107.614 54.6333 107.593 54.7279C107.583 54.8119 107.577 54.9013 107.577 54.9958C107.577 55.0694 107.583 55.1692 107.593 55.2953C107.604 55.4214 107.619 55.5527 107.64 55.6893C107.672 55.8259 107.704 55.952 107.735 56.0676C107.767 56.1832 107.809 56.2673 107.861 56.3198C107.903 56.3723 107.971 56.4144 108.066 56.4459C108.171 56.4669 108.281 56.4879 108.397 56.5089C108.513 56.5195 108.628 56.53 108.744 56.5405C108.859 56.5405 108.949 56.5405 109.012 56.5405C109.264 56.5405 109.532 56.53 109.816 56.5089C110.11 56.4879 110.404 56.4669 110.698 56.4459C111.003 56.4144 111.297 56.3829 111.581 56.3513C111.865 56.3093 112.127 56.2725 112.369 56.241ZM125.246 56.8557L124.978 59.6297C124.642 59.6508 124.306 59.6665 123.97 59.677C123.633 59.698 123.297 59.7086 122.961 59.7086C122.782 59.7086 122.546 59.7033 122.251 59.6928C121.957 59.6823 121.653 59.6665 121.337 59.6455C121.022 59.614 120.723 59.5772 120.439 59.5352C120.155 59.4826 119.929 59.4196 119.761 59.346C119.509 59.2305 119.299 59.0781 119.131 58.889C118.973 58.6998 118.842 58.4949 118.737 58.2742C118.632 58.0431 118.548 57.8014 118.484 57.5492C118.421 57.2865 118.374 57.0291 118.343 56.7769C118.311 56.5352 118.285 56.2778 118.264 56.0046C118.253 55.7209 118.243 55.4319 118.232 55.1377C118.232 54.8435 118.232 54.5598 118.232 54.2866C118.232 54.0029 118.232 53.7402 118.232 53.4985V53.0256H117.255C117.297 52.5528 117.318 52.0852 117.318 51.6229C117.329 51.1605 117.355 50.6929 117.397 50.2201L118.343 50.2516V47.9189C118.942 48.0345 119.535 48.0975 120.124 48.108C120.723 48.108 121.322 48.129 121.92 48.1711L121.889 50.5826L123.213 50.6614C123.213 50.7349 123.213 50.8032 123.213 50.8663C123.223 50.9293 123.229 50.9976 123.229 51.0712C123.229 51.3654 123.202 51.6544 123.15 51.9381C123.108 52.2113 123.05 52.4897 122.977 52.7734H121.826C121.805 53.2568 121.789 53.7402 121.779 54.2235C121.768 54.7069 121.763 55.1902 121.763 55.6736C121.763 55.9048 121.768 56.1149 121.779 56.304C121.8 56.4827 121.842 56.635 121.905 56.7611C121.978 56.8872 122.094 56.9818 122.251 57.0448C122.409 57.1079 122.63 57.1394 122.913 57.1394C123.302 57.1394 123.691 57.1131 124.08 57.0606C124.469 57.0081 124.857 56.9398 125.246 56.8557ZM136.878 53.4039C136.878 53.488 136.878 53.572 136.878 53.6561C136.878 53.7297 136.873 53.8085 136.863 53.8925C136.852 54.0396 136.826 54.2813 136.784 54.6176C136.742 54.9538 136.684 55.3058 136.61 55.6736C136.537 56.0308 136.447 56.3618 136.342 56.6666C136.237 56.9713 136.122 57.1657 135.996 57.2497C135.933 57.2918 135.717 57.3286 135.349 57.3601C134.992 57.3916 134.551 57.4231 134.025 57.4546C133.511 57.4862 132.948 57.5124 132.339 57.5335C131.729 57.5545 131.146 57.5755 130.589 57.5965C130.043 57.607 129.56 57.6175 129.139 57.628C128.73 57.6385 128.456 57.6438 128.32 57.6438C128.257 57.6438 128.146 57.6438 127.989 57.6438C127.842 57.6438 127.684 57.6438 127.516 57.6438C127.348 57.6333 127.19 57.6228 127.043 57.6123C126.896 57.6018 126.791 57.586 126.728 57.565C126.581 57.5124 126.434 57.4284 126.286 57.3128C126.139 57.1867 126.003 57.0501 125.877 56.903C125.751 56.7454 125.635 56.5878 125.53 56.4301C125.435 56.262 125.367 56.1044 125.325 55.9573C125.293 55.8417 125.267 55.6683 125.246 55.4372C125.225 55.1955 125.209 54.9485 125.199 54.6964C125.188 54.4337 125.178 54.1815 125.167 53.9398C125.167 53.6981 125.167 53.5142 125.167 53.3882C125.167 53.1885 125.173 52.9153 125.183 52.5685C125.194 52.2113 125.225 51.8488 125.278 51.481C125.33 51.1132 125.404 50.7717 125.498 50.4565C125.603 50.1308 125.751 49.9048 125.94 49.7787C126.024 49.7262 126.181 49.6789 126.413 49.6369C126.644 49.5949 126.917 49.5581 127.232 49.5266C127.547 49.495 127.884 49.474 128.241 49.4635C128.598 49.4425 128.945 49.432 129.281 49.432C129.628 49.4215 129.948 49.4162 130.243 49.4162C130.537 49.4162 130.773 49.4215 130.952 49.432C131.11 49.4425 131.335 49.453 131.63 49.4635C131.924 49.4635 132.25 49.4688 132.607 49.4793C132.975 49.4898 133.353 49.5108 133.742 49.5423C134.13 49.5633 134.493 49.5949 134.829 49.6369C135.166 49.6789 135.46 49.7367 135.712 49.8103C135.975 49.8733 136.148 49.9521 136.232 50.0467C136.369 50.1938 136.479 50.4145 136.563 50.7087C136.647 51.0029 136.71 51.3181 136.752 51.6544C136.805 51.9801 136.836 52.3059 136.847 52.6316C136.868 52.9468 136.878 53.2043 136.878 53.4039ZM133.537 53.7349C133.537 53.6088 133.532 53.4617 133.521 53.2936C133.511 53.1255 133.495 52.9573 133.474 52.7892C133.453 52.6106 133.421 52.4425 133.379 52.2848C133.337 52.1167 133.285 51.9801 133.222 51.875C133.138 51.7384 132.975 51.6334 132.733 51.5598C132.491 51.4862 132.223 51.4337 131.929 51.4022C131.645 51.3602 131.362 51.3339 131.078 51.3234C130.805 51.3129 130.6 51.3076 130.463 51.3076C130.39 51.3076 130.258 51.3129 130.069 51.3234C129.88 51.3234 129.68 51.3286 129.47 51.3391C129.271 51.3496 129.082 51.3707 128.903 51.4022C128.724 51.4232 128.609 51.4495 128.556 51.481C128.462 51.544 128.388 51.6439 128.335 51.7805C128.283 51.9066 128.241 52.0484 128.209 52.206C128.188 52.3636 128.173 52.5213 128.162 52.6789C128.162 52.826 128.162 52.9468 128.162 53.0414C128.162 53.136 128.167 53.3093 128.178 53.5615C128.199 53.8032 128.22 54.0659 128.241 54.3496C128.272 54.6228 128.309 54.875 128.351 55.1062C128.393 55.3373 128.446 55.4844 128.509 55.5475C128.582 55.6316 128.719 55.6999 128.919 55.7524C129.129 55.8049 129.349 55.8522 129.581 55.8942C129.822 55.9258 130.053 55.952 130.274 55.9731C130.495 55.9836 130.652 55.9888 130.747 55.9888C130.915 55.9888 131.115 55.9836 131.346 55.9731C131.577 55.9625 131.808 55.9363 132.039 55.8942C132.281 55.8522 132.507 55.7944 132.717 55.7209C132.927 55.6473 133.095 55.5475 133.222 55.4214C133.295 55.3478 133.353 55.2375 133.395 55.0904C133.437 54.9433 133.469 54.7857 133.49 54.6176C133.511 54.4494 133.521 54.2866 133.521 54.1289C133.532 53.9608 133.537 53.8295 133.537 53.7349ZM147.628 52.9941V53.3566L144.586 53.4985C144.617 53.3619 144.633 53.2043 144.633 53.0256C144.633 52.7629 144.596 52.5948 144.523 52.5213C144.449 52.4372 144.286 52.3952 144.034 52.3952C143.677 52.3952 143.283 52.4582 142.852 52.5843C142.421 52.7104 142.043 52.8312 141.717 52.9468C141.665 53.4092 141.623 53.8715 141.591 54.3338C141.559 54.7962 141.544 55.2585 141.544 55.7209C141.544 56.2357 141.544 56.7506 141.544 57.2655C141.554 57.7699 141.565 58.2795 141.575 58.7944L138.864 58.9678C138.812 58.2953 138.759 57.628 138.707 56.966C138.654 56.2935 138.607 55.621 138.565 54.9485C138.512 54.0554 138.444 53.1675 138.36 52.2848C138.276 51.3917 138.192 50.4933 138.108 49.5896C138.707 49.6316 139.3 49.6947 139.889 49.7787C140.488 49.8523 141.087 49.9469 141.686 50.0625L141.607 51.3864C141.922 51.1342 142.221 50.9188 142.505 50.7402C142.799 50.5511 143.094 50.3934 143.388 50.2674C143.693 50.1413 144.013 50.0519 144.349 49.9994C144.686 49.9364 145.059 49.9048 145.468 49.9048C145.742 49.9048 146.025 49.9364 146.319 49.9994C146.614 50.0519 146.866 50.1833 147.076 50.3934C147.181 50.509 147.27 50.6824 147.344 50.9136C147.418 51.1447 147.475 51.3917 147.517 51.6544C147.559 51.9066 147.586 52.1587 147.596 52.4109C147.617 52.6526 147.628 52.847 147.628 52.9941Z" fill="#08714B"/>
<path d="M6.22798 66.9072L3 13H19.7855V3L28 6.5L36.571 3V13C36.571 42.0518 39.6698 63.4855 40.4446 65.2932C41.2193 67.1009 17.9563 67.1224 6.22798 66.9072Z" stroke="#08714B" stroke-width="3.87357"/>
<path d="M20.8749 19C20.8749 19 20.7082 25.2392 20.8749 28.75M22.5 39C22.5 39 21.0004 31.3922 20.8749 28.75M20.8749 28.75H31M20.8749 28.75L11 31" stroke="#08714B" stroke-width="3.375"/>
<path d="M13.9701 44.8873C13.9701 44.8873 19.5717 49.8386 22.1747 52.2003M29.3405 57.7606C29.3405 57.7606 24.1337 53.9777 22.1747 52.2003M22.1747 52.2003L27.7369 46.6254M22.1747 52.2003L15.0948 58.9498" stroke="#08714B" stroke-width="3.375"/>
</svg>
